<svg xmlns="http://www.w3.org/2000/svg" width="283" height="285" viewBox="0 0 283 285"><g transform="translate(-142 -37)"><path d="M.009,113.364H0V0H182V113.364h-.01a91,91,0,0,1-181.981,0Z" transform="translate(142 40)" fill="#d05e42"/><rect width="182" height="74" transform="translate(142 248)" fill="#e7d1ac"/><path d="M0,230H0V50.229L0,0H90V140.115A89.225,89.225,0,0,1,82.927,175.1,89.581,89.581,0,0,1,63.64,203.673a89.706,89.706,0,0,1-28.607,19.263A89.529,89.529,0,0,1,0,230Z" transform="translate(329 87)" fill="#44445c"/><path d="M45,45A44.705,44.705,0,0,1,13.18,31.82,44.705,44.705,0,0,1,0,0H90A44.7,44.7,0,0,1,76.82,31.82,44.705,44.705,0,0,1,45,45Z" transform="translate(335 37)" fill="#bbc5cf"/></g></svg>